# xmcd
#
# Track frame offsets:
#	150
#	17257
#	37747
#	56248
#	79814
#	97236
#	142671
#	160349
#	185712
#	210297
#	238995
#	260535
#
# Disc length: 3891
#
# Revision: 1
# Processed by: cddbd v1.5.1PL0 Copyright (c) Steve Scherf et al.
# Submitted via: CDex 1.51
# Normalized: r0:TDELIM( - ),TSWAP
#
DISCID=9c0f310c
DTITLE=Various Artist - When Love Was King
DYEAR=1900
DGENRE=Jazz
TTITLE0=Doug Carn, feat. Jean Carn - Revelation
TTITLE1=Doug Carn, feat. Jean Carn - Naima
TTITLE2=Doug Carn, feat. Jean Carn - Contemplation
TTITLE3=Doug Carn, feat. Jean Carn - Blue In Green
TTITLE4=Doug Carn, feat. Jean Carn - Little B's Poem
TTITLE5=Doug Carn, feat. Jean Carn - Infant Eyes
TTITLE6=Sarah Vaughan - Isn't It A Pity
TTITLE7=Art Blakey's Jazz Messengers - I Remember Clifford
TTITLE8=Ernestine Anderson - Just One More Chance
TTITLE9=Richie Havens - Follow
TTITLE10=Richie Havens - Just Like A Woman
TTITLE11=Poncho Sanchez - A Time For Love
EXTD=
EXTT0=
EXTT1=
EXTT2=
EXTT3=
EXTT4=
EXTT5=
EXTT6=
EXTT7=
EXTT8=
EXTT9=
EXTT10=
EXTT11=
PLAYORDER=
